<svg id="Camada_1" data-name="Camada 1" xmlns="http://www.w3.org/2000/svg" viewBox="0 0 450.07 99.87">
  <defs>
    <style>
      .cls-1 {
        fill: #074161;
      }

      .cls-2 {
        fill: #074262;
      }

      .cls-3 {
        fill: #76818b;
      }

      .cls-4 {
        fill: #084262;
      }

      .cls-5 {
        fill: #77818b;
      }

      .cls-6 {
        fill: #77828c;
      }

      .cls-7 {
        fill: #173444;
      }
    </style>
  </defs>
  <title>logo</title>
  <path class="cls-1" d="M59.63,15.72C60.23,17.05,79.4,59.29,80,60.63c1.42,3.19,2.83,6.39,4.25,9.57.59,1.33,1.22,2.64,1.84,4,.49,1,.87,2.11,1.27,3.18a.45.45,0,0,1,0,.19L85.23,78a22.54,22.54,0,0,1-6.29.52,17.65,17.65,0,0,1-7-1.84,9.74,9.74,0,0,1-4.25-4.27C67,71.19,43.45,17,42.88,15.72" transform="translate(-3.23 -1.97)"/>
  <path class="cls-2" d="M453.3,78.67s-.07.08-.08.12a10.38,10.38,0,0,1-4.78,7.49,15.37,15.37,0,0,1-5.11,2.11,23.37,23.37,0,0,1-10.09.25,18.51,18.51,0,0,1-6.46-2.59,10,10,0,0,1-2-1.69,5.47,5.47,0,0,1-.41-.54.2.2,0,0,1,0-.28,3.33,3.33,0,0,1,2.21-1.5,2.63,2.63,0,0,1,1,.08,17,17,0,0,1,2.22.74,17.23,17.23,0,0,0,4.63,1.29,20,20,0,0,0,4.09.22,10.73,10.73,0,0,0,3.83-.82,6,6,0,0,0,2.05-1.39,4,4,0,0,0,.09-5.38,12.47,12.47,0,0,0-2.47-2,43.77,43.77,0,0,0-4.13-2.29c-1.53-.76-3.07-1.52-4.59-2.29A21.48,21.48,0,0,1,428.56,67a11.58,11.58,0,0,1-2.25-2.64,8,8,0,0,1,.25-9,10.16,10.16,0,0,1,6.13-4.17,19.13,19.13,0,0,1,6.95-.45,22.2,22.2,0,0,1,9.2,3.17,14,14,0,0,1,2.47,1.88c.27.25.27.26,0,.53l-.43.45a2.62,2.62,0,0,1-2.9.7c-.76-.26-1.5-.54-2.25-.81a21.43,21.43,0,0,0-6.47-1.37,11.33,11.33,0,0,0-4.05.45,6.25,6.25,0,0,0-1.17.55,2.7,2.7,0,0,0-.47,4.25,15.36,15.36,0,0,0,2.95,2.19,57.55,57.55,0,0,0,5.15,2.58,32.44,32.44,0,0,1,7,4.09,13.28,13.28,0,0,1,3.54,4.1,7.4,7.4,0,0,1,1,3.18.17.17,0,0,0,.08.17Z" transform="translate(-3.23 -1.97)"/>
  <path class="cls-3" d="M45.34,22.1c-.18.44-.14.37-.22.55-.57,1.3-1.12,2.61-1.68,3.91-.19.43-.39.85-.55,1.29a.6.6,0,0,1-.68.47c-.93,0-1.87,0-2.8,0-1.48,0-2.95,0-4.41.12a24.05,24.05,0,0,0-10.39,2.8l-.14.05c-.11-.13,0-.23,0-.33C27,25.33,29.37,19.69,32,14.13c.56-1.19,1.07-2.4,1.63-3.59a17.63,17.63,0,0,1,3.7-5.23,11,11,0,0,1,4.87-2.94,14,14,0,0,1,4-.39l1.55,0H91.47c.77,0,.74-.13.69.72a13.9,13.9,0,0,1-3.24,8.37,14.15,14.15,0,0,1-8.18,5,11.89,11.89,0,0,1-2.53.28h-18l-.1,0H52a6.41,6.41,0,0,0-1.24.08,5.8,5.8,0,0,0-4.48,3.46c-.21.47-.4.95-.6,1.43C45.56,21.58,45.45,21.79,45.34,22.1Z" transform="translate(-3.23 -1.97)"/>
  <path class="cls-1" d="M34.35,47.16c-.37,1-5.86,13.68-6.29,14.68-.31.73-.63,1.45-1,2.26H61.86c.78,0,.72-.14.67.73A14.41,14.41,0,0,1,51.52,78a15.47,15.47,0,0,1-3.65.4c-11.24,0-22.48,0-33.71,0-2.11,0-4.22.14-6.34.12-1.52,0-3,0-4.56-.14-.09-.18,0-.31.08-.45.77-2,1.59-4.06,2.54-6,1.76-3.63,3.3-7.35,5-11,0-.1,5.88-13.06,6-13.12" transform="translate(-3.23 -1.97)"/>
  <path class="cls-3" d="M14.06,53.69C14.67,52.32,15.3,51,16,49.62c.31-.58.52-1.21.84-1.78a28.09,28.09,0,0,0,1.27-2.66c.3-.67.6-1.33.88-2A15.06,15.06,0,0,1,28,34.71a26,26,0,0,1,6.16-1.36,46.48,46.48,0,0,1,6-.25c3.17.06,6.34,0,9.5,0,.19,0,.44.12.53-.17.19.25.46.19.71.19H67.58c.14,0,.27,0,.41,0H78.32c.57,0,.58-.06.56.57a13.07,13.07,0,0,1-2.73,7.42,14.06,14.06,0,0,1-3.28,3.16c-.12,0-.14.13-.15.23-.2,0-.32.11-.46.2-.42.24-.83.51-1.25.74a17.89,17.89,0,0,1-8.42,2c-1.78,0-3.56,0-5.34,0-.2,0-.42-.07-.57.15-.19-.21-.44-.16-.68-.16H33.83a35.28,35.28,0,0,0-7.32.51,26.32,26.32,0,0,0-9.86,4.23,8.74,8.74,0,0,0-1,.77c-.41.3-1.6,1.15-1.95,1.42" transform="translate(-3.23 -1.97)"/>
  <path class="cls-2" d="M404.11,50.68a20.24,20.24,0,0,1,10.75,3.45,17.25,17.25,0,0,1,7.7,12,20.85,20.85,0,0,1-.7,10.25,17.48,17.48,0,0,1-10.68,11.11A21.81,21.81,0,0,1,393.49,87a17.43,17.43,0,0,1-10.07-12.74,22.16,22.16,0,0,1-.27-7.13,17.79,17.79,0,0,1,2.76-7.85,18.22,18.22,0,0,1,9.73-7.39A24.44,24.44,0,0,1,404.11,50.68Zm11.06,19.17a18,18,0,0,0-.94-6.2c-1.86-5-5.38-8-10.82-8.29a11.13,11.13,0,0,0-7.78,2.48,12.94,12.94,0,0,0-4.55,7.82,21.48,21.48,0,0,0-.3,6.3,15.52,15.52,0,0,0,1.35,5.31c2.06,4.38,5.44,6.89,10.34,7.15a11.14,11.14,0,0,0,7.32-2.17,12.66,12.66,0,0,0,4.34-6A18.48,18.48,0,0,0,415.17,69.85Z" transform="translate(-3.23 -1.97)"/>
  <path class="cls-2" d="M229,70a19.5,19.5,0,0,1,1.35-7.75A17.88,17.88,0,0,1,241.25,52a22.19,22.19,0,0,1,10.06-1.18,20.86,20.86,0,0,1,8.94,3,17.36,17.36,0,0,1,8.29,12.52,20.84,20.84,0,0,1-.84,10.45,17.53,17.53,0,0,1-10.57,10.76A21.83,21.83,0,0,1,239.38,87a17.49,17.49,0,0,1-10-12.87A19.22,19.22,0,0,1,229,70Zm7.69-.07a18,18,0,0,0,.87,6,13.25,13.25,0,0,0,2.91,5,11.21,11.21,0,0,0,9.27,3.55,11.09,11.09,0,0,0,8.61-4.75,14.13,14.13,0,0,0,2.47-5.93,22.71,22.71,0,0,0,.22-6.16,15.43,15.43,0,0,0-1.78-6.07,11.81,11.81,0,0,0-17-4.11,12.23,12.23,0,0,0-4.5,5.89A18.09,18.09,0,0,0,236.65,69.91Z" transform="translate(-3.23 -1.97)"/>
  <path class="cls-2" d="M163,69.91c0-3.34.05-6.68.08-10a14.3,14.3,0,0,1,.35-3.19,6.74,6.74,0,0,1,4.93-5.24,15.78,15.78,0,0,1,2.64-.51,41.72,41.72,0,0,1,6.22-.2,21.09,21.09,0,0,1,10.11,2.76,17.38,17.38,0,0,1,8.71,12.63,21,21,0,0,1-.4,9.27,17.66,17.66,0,0,1-10.28,11.79A21.16,21.16,0,0,1,178.17,89a45.23,45.23,0,0,1-7.36-.12,11.93,11.93,0,0,1-3.17-.76A6.71,6.71,0,0,1,163.33,83a12,12,0,0,1-.33-2.73V69.91Zm7.24-.07v9.61c0,.81,0,1.63,0,2.44a2,2,0,0,0,1.06,1.84,4.64,4.64,0,0,0,2,.63,22,22,0,0,0,5.85-.19,10.4,10.4,0,0,0,7.54-5.47,15.8,15.8,0,0,0,1.84-6.32,28,28,0,0,0-.09-5.86,14.84,14.84,0,0,0-2.17-6.22A10,10,0,0,0,180.68,56a19.55,19.55,0,0,0-7.46-.53,4.35,4.35,0,0,0-2,.71,1.9,1.9,0,0,0-.9,1.6c0,.19,0,.38,0,.57Z" transform="translate(-3.23 -1.97)"/>
  <path class="cls-2" d="M358.6,89.05a31.59,31.59,0,0,1-4.45-.3,12.82,12.82,0,0,1-2.45-.65,6.68,6.68,0,0,1-4.27-4.87,14,14,0,0,1-.4-3.65q0-6.1.08-12.2c0-2.46,0-4.92,0-7.38a13.54,13.54,0,0,1,.59-4.09,6.47,6.47,0,0,1,3.91-4.17,13.27,13.27,0,0,1,3.47-.8,40.42,40.42,0,0,1,6.22-.2A20.88,20.88,0,0,1,372.14,54a17.2,17.2,0,0,1,7.92,11.91,20.73,20.73,0,0,1-.59,10.37A17.73,17.73,0,0,1,369,87.39a22.33,22.33,0,0,1-8.39,1.66C359.92,89.06,359.26,89.05,358.6,89.05Zm-4.3-19.22V81.26c0,.19,0,.38,0,.57a2.06,2.06,0,0,0,1.14,1.94,5,5,0,0,0,2,.6,22,22,0,0,0,5.79-.2,10.43,10.43,0,0,0,7.55-5.46,15.14,15.14,0,0,0,1.79-5.86,27.15,27.15,0,0,0-.09-6.68A14.19,14.19,0,0,0,370,59.84a9.86,9.86,0,0,0-5.3-3.88,20,20,0,0,0-7.46-.53,4.56,4.56,0,0,0-1.82.57,2.05,2.05,0,0,0-1.15,1.94c0,.19,0,.38,0,.57Z" transform="translate(-3.23 -1.97)"/>
  <path class="cls-2" d="M293.52,67c1.28,0,2.56,0,3.84,0a12.08,12.08,0,0,1,3.47.59,6.39,6.39,0,0,1,4.32,4.6,13.35,13.35,0,0,1,.51,3.32c0,1.21,0,2.43,0,3.64a8.73,8.73,0,0,1-3.85,7.17,13.33,13.33,0,0,1-5,2.11,23.33,23.33,0,0,1-14.11-1.06A17.58,17.58,0,0,1,272.17,76a20.58,20.58,0,0,1-.84-7.28A19.34,19.34,0,0,1,272.38,63a17.69,17.69,0,0,1,11.05-10.94,22.44,22.44,0,0,1,8.82-1.33,15.66,15.66,0,0,1,7.39,2.16,10.09,10.09,0,0,1,2.23,1.78c.28.31.29.33,0,.64a4.3,4.3,0,0,1-1.12,1.13,3.84,3.84,0,0,1-3.08.14c-.9-.29-1.8-.62-2.72-.84a13.75,13.75,0,0,0-7.23.11,11.49,11.49,0,0,0-7.3,6.55,16.32,16.32,0,0,0-1.38,5.71,22.4,22.4,0,0,0,.33,5.95,13.67,13.67,0,0,0,2.67,6A12.55,12.55,0,0,0,295,84a4.78,4.78,0,0,0,3.54-3.88,10.81,10.81,0,0,0,.23-2c0-1.23,0-2.46,0-3.69a1.41,1.41,0,0,0,0-.2,1.78,1.78,0,0,0-2-1.9h-2.64a6.47,6.47,0,0,1-2-.3,4.64,4.64,0,0,1-3.27-3.75,6.39,6.39,0,0,1-.11-1c0-.2.07-.28.27-.27s.21,0,.31,0h4.21Z" transform="translate(-3.23 -1.97)"/>
  <path class="cls-4" d="M162.63,88.39a8.59,8.59,0,0,1-2.31.33,8.82,8.82,0,0,1-3-.47,4.57,4.57,0,0,1-2.86-2.61L152.94,82c-.6-1.38-1.2-2.76-1.78-4.15a.57.57,0,0,0-.62-.4q-7.83,0-15.68,0a.58.58,0,0,0-.62.4c-1,2.36-2,4.71-3,7.06a8.29,8.29,0,0,1-.94,1.73A4.14,4.14,0,0,1,128.65,88a8.61,8.61,0,0,1-5.68.46.83.83,0,0,1-.18-.08c.28-.67.54-1.35.85-2,.89-1.87,1.67-3.8,2.5-5.7q5.61-12.8,11.21-25.61a10.68,10.68,0,0,1,2-3,4.85,4.85,0,0,1,6.74,0,10.59,10.59,0,0,1,2.06,3.15q2.94,6.72,5.88,13.45c2.46,5.62,4.95,11.23,7.36,16.88.31.71.65,1.41,1,2.12ZM148.75,72.13c-2.09-4.74-4.09-9.44-6.06-14.24-2.09,4.76-4,9.5-6,14.24Z" transform="translate(-3.23 -1.97)"/>
  <path class="cls-4" d="M345.76,88.39a8.08,8.08,0,0,1-2.32.33,8.84,8.84,0,0,1-3-.49,4.53,4.53,0,0,1-2.77-2.56c-.49-1.11-1-2.22-1.45-3.33-.64-1.48-1.28-3-1.9-4.44a.59.59,0,0,0-.64-.43q-7.83,0-15.64,0a.59.59,0,0,0-.65.42c-1,2.41-2.1,4.79-3.08,7.2a5.39,5.39,0,0,1-4.4,3.5,9.59,9.59,0,0,1-3.66-.1c-.24-.06-.32-.14-.21-.38.25-.56.46-1.12.71-1.67,1.45-3.09,2.74-6.24,4.11-9.36q4.81-11,9.59-21.9a9.71,9.71,0,0,1,2.39-3.42,4.91,4.91,0,0,1,6,0,8.84,8.84,0,0,1,1.71,2,12.15,12.15,0,0,1,.73,1.44q5.16,11.77,10.32,23.56c1.33,3,2.59,6.08,4,9.08C345.61,88,345.67,88.17,345.76,88.39ZM319.81,72.13h12.08c-2.08-4.73-4.08-9.42-6.05-14.24C323.74,62.65,321.84,67.38,319.81,72.13Z" transform="translate(-3.23 -1.97)"/>
  <path class="cls-5" d="M3.85,2a4.73,4.73,0,0,1,.52,0H29.93c-.29.83-.69,1.62-1,2.43C28.2,6,27.49,7.57,26.81,9.16a.64.64,0,0,1-.71.43H13.17c-.91,0-.78-.13-.78.8v30.8a2.82,2.82,0,0,1-.24,1.15q-4,9-8,18a.93.93,0,0,1-.31.49V2.68C3.86,2.46,3.86,2.23,3.85,2Z" transform="translate(-3.23 -1.97)"/>
  <path class="cls-2" d="M232.08,51.25c.06.18,0,.3-.09.42-4,9.62-8.05,19.24-12.32,28.75-.66,1.49-1.34,3-2.09,4.41-.15.31-.32.61-.49.91-1.41,2.43-3.63,3.21-6.3,3-.29,0-.58-.1-.87-.13a.79.79,0,0,1-.67-.55c-1.08-2.54-2.19-5.08-3.29-7.62q-6.22-14.36-12.43-28.7a1,1,0,0,1-.16-.52,14,14,0,0,1,3.66-.13,7.85,7.85,0,0,1,2.91.87,6.3,6.3,0,0,1,2.86,3.24c1.5,3.68,3,7.35,4.57,11q2.55,6.08,5.11,12.15c.07.18.16.37.25.56.18-.11.2-.3.26-.45l8.73-21c.33-.82.69-1.62,1.05-2.43a6.4,6.4,0,0,1,4.79-3.83A12.27,12.27,0,0,1,232.08,51.25Z" transform="translate(-3.23 -1.97)"/>
  <path class="cls-6" d="M11.91,85a1.21,1.21,0,0,1,.49,0H22.53a1.42,1.42,0,0,1,.86.27,61.32,61.32,0,0,0,17.88,8.48c.76.23,1.53.43,2.3.65a1.31,1.31,0,0,0,.76,0,63.46,63.46,0,0,0,19.2-8.46c.37-.24.74-.5,1.11-.76a.89.89,0,0,1,.57-.19H75.86L76,85c0,.21-.2.3-.33.43a54.45,54.45,0,0,1-7,5.82,66.42,66.42,0,0,1-17.92,8.91q-3.14,1-6.36,1.69a2,2,0,0,1-.77,0,66,66,0,0,1-18.8-7.13,63.37,63.37,0,0,1-9.52-6.56c-1.09-.92-2.15-1.86-3.15-2.87A.56.56,0,0,1,11.91,85Z" transform="translate(-3.23 -1.97)"/>
  <path class="cls-6" d="M189.93,27.06a12.21,12.21,0,0,1,1.74-6.7,11.31,11.31,0,0,1,6-4.73,13.9,13.9,0,0,1,11.09.58,10.91,10.91,0,0,1,6.17,8.12,13.18,13.18,0,0,1-.31,6.42,11,11,0,0,1-6.7,7.26,13.72,13.72,0,0,1-11.85-.52,10.94,10.94,0,0,1-5.94-8.22c0-.21-.07-.41-.09-.62A10.56,10.56,0,0,1,189.93,27.06Zm4.87-.12A10.75,10.75,0,0,0,196,32.16,7.4,7.4,0,0,0,207,34.63a8.25,8.25,0,0,0,2.73-4.08,10.52,10.52,0,0,0,.46-2.6,11.92,11.92,0,0,0-.84-5.69,7.34,7.34,0,0,0-7-4.51,7.18,7.18,0,0,0-6.42,4A10.55,10.55,0,0,0,194.8,26.94Z" transform="translate(-3.23 -1.97)"/>
  <path class="cls-6" d="M275.72,14.82a14.28,14.28,0,0,1,8.4,2,10.89,10.89,0,0,1,5.14,7.7,13,13,0,0,1-.38,6.46,11.29,11.29,0,0,1-7.22,7.29,14.29,14.29,0,0,1-4.94.84,23.36,23.36,0,0,1-3.83-.2,6,6,0,0,1-2.69-1,4.63,4.63,0,0,1-1.72-3.1,8.79,8.79,0,0,1-.12-1.7c0-3.65,0-7.31.06-11a20.81,20.81,0,0,1,.13-3,4.47,4.47,0,0,1,4-4.07A22.32,22.32,0,0,1,275.72,14.82Zm.72,3c-.48,0-1,0-1.45,0a3,3,0,0,0-1.24.34,1.34,1.34,0,0,0-.8,1.29V34.16c0,.14,0,.28,0,.41a1.3,1.3,0,0,0,.7,1.14,3.25,3.25,0,0,0,1.13.36,12.56,12.56,0,0,0,3.41,0,7,7,0,0,0,3-1.1,7.64,7.64,0,0,0,3.06-4.72,15.18,15.18,0,0,0,.29-4.8,9.82,9.82,0,0,0-1.15-4.06A6.48,6.48,0,0,0,279.22,18,9,9,0,0,0,276.44,17.78Z" transform="translate(-3.23 -1.97)"/>
  <path class="cls-6" d="M258.2,38.65a5.27,5.27,0,0,1-4.07-.46,2.53,2.53,0,0,1-1-1.27c-.56-1.26-1.11-2.54-1.66-3.8-.13-.31-.28-.6-.38-.91s-.32-.56-.72-.49a.85.85,0,0,1-.16,0H241c-.73,0-.6-.13-.92.63l-1.64,3.81-.25.57a3.33,3.33,0,0,1-2.79,2,5.83,5.83,0,0,1-1.91,0c-.52-.07-.54-.1-.33-.57q1.13-2.56,2.24-5.13,2.87-6.54,5.72-13.08c.38-.87.76-1.75,1.16-2.61a6.58,6.58,0,0,1,1.1-1.63,3.08,3.08,0,0,1,4.4,0A6.85,6.85,0,0,1,249,17.52l8.56,19.59A13,13,0,0,1,258.2,38.65ZM245.57,19.41l-3.76,8.94h7.53C249.3,28.07,245.86,19.9,245.57,19.41Z" transform="translate(-3.23 -1.97)"/>
  <path class="cls-6" d="M156.94,39.07a12.81,12.81,0,0,1-6.55-1.73A6.68,6.68,0,0,1,148.75,36c-.25-.29-.25-.32,0-.61a1.72,1.72,0,0,1,2-.66c.49.16,1,.32,1.47.52a12.29,12.29,0,0,0,4.61.86,7.93,7.93,0,0,0,2.9-.44,4,4,0,0,0,1.51-1,2.53,2.53,0,0,0,.14-3.24,7.11,7.11,0,0,0-1.7-1.44,35.24,35.24,0,0,0-3.14-1.72c-1.18-.59-2.41-1.13-3.54-1.84a10.24,10.24,0,0,1-2.68-2.27A5.17,5.17,0,0,1,149,21a5.28,5.28,0,0,1,1.15-3.53A6.75,6.75,0,0,1,154.5,15a13.38,13.38,0,0,1,10.62,2.61,5.24,5.24,0,0,1,.5.44.23.23,0,0,1,0,.36,1.8,1.8,0,0,1-2.11.7c-.51-.17-1-.36-1.51-.54a12.5,12.5,0,0,0-5.35-.79,4.55,4.55,0,0,0-1.87.55,1.71,1.71,0,0,0-.32,2.78,10.26,10.26,0,0,0,2.24,1.57c.9.49,1.82.94,2.75,1.36a19.71,19.71,0,0,1,4.71,2.81A7.66,7.66,0,0,1,166.53,30a5.64,5.64,0,0,1-.49,5,7.38,7.38,0,0,1-4.17,3.31A15.12,15.12,0,0,1,156.94,39.07Z" transform="translate(-3.23 -1.97)"/>
  <path class="cls-6" d="M291.86,24.6V20.91a8.64,8.64,0,0,1,.3-2.2,4,4,0,0,1,2.4-2.81,8.78,8.78,0,0,1,2.51-.61,34.2,34.2,0,0,1,3.79-.12c1.94,0,3.88,0,5.81-.08l1.56-.1c.41,0,.44,0,.42.43a3,3,0,0,1-2.89,3,13.73,13.73,0,0,1-1.92.1h-5.92a3.63,3.63,0,0,0-.57,0,1,1,0,0,0-1,1.09c0,1.39,0,2.77.06,4.16,0,.42,0,.42.51.42h8c.62,0,.61,0,.53.6a3,3,0,0,1-3.14,2.73c-1.75.05-3.5,0-5.24,0-.14,0-.28,0-.42,0s-.27.09-.27.28a11.63,11.63,0,0,0,.53,4.1A4.65,4.65,0,0,0,300.53,35a12.6,12.6,0,0,0,2.67.34c2,0,4,0,6-.15.24,0,.3,0,.3.27A2.92,2.92,0,0,1,307,38.56a13.74,13.74,0,0,1-2.22.16,22.53,22.53,0,0,1-6.45-.47,8.19,8.19,0,0,1-3.18-1.47,7.7,7.7,0,0,1-2.63-4.13,17.25,17.25,0,0,1-.6-4.51c0-1.18,0-2.36,0-3.54Z" transform="translate(-3.23 -1.97)"/>
  <path class="cls-6" d="M147.16,35.21a2.82,2.82,0,0,1-2,3.23,4.23,4.23,0,0,1-1.06.2,35.65,35.65,0,0,1-5.66,0,15.92,15.92,0,0,1-3-.57,7.41,7.41,0,0,1-5.14-5.32,15,15,0,0,1-.61-4.09c0-2.67,0-5.33,0-8a8,8,0,0,1,.22-1.75,4.15,4.15,0,0,1,3-3.22,11.06,11.06,0,0,1,3.12-.5c1.54,0,3.08,0,4.62,0,1.77,0,3.53,0,5.29-.17l.21,0c.22,0,.3.08.31.3a2.9,2.9,0,0,1-1.93,2.9,5.92,5.92,0,0,1-2,.32H135.6a2.32,2.32,0,0,0-.87.12.91.91,0,0,0-.61.71,3.64,3.64,0,0,0-.06,1.09c.08,1.09.06,2.18.09,3.27,0,.51,0,.51.51.51h8c.6,0,.6,0,.53.59a3.05,3.05,0,0,1-3.12,2.75c-1.51,0-3,0-4.52,0-.36,0-.73,0-1.09,0s-.33.09-.33.33a13.43,13.43,0,0,0,.24,3.1,4.94,4.94,0,0,0,4.35,4.14,15.34,15.34,0,0,0,2.53.22c1.94,0,3.88,0,5.82-.17Z" transform="translate(-3.23 -1.97)"/>
  <path class="cls-6" d="M169.15,27a11.75,11.75,0,0,1,2-7,11.4,11.4,0,0,1,6.48-4.58,14.68,14.68,0,0,1,3.78-.59,10.31,10.31,0,0,1,5.76,1.44,5.19,5.19,0,0,1,1.2,1c.26.27.26.3,0,.61a2.09,2.09,0,0,1-2.46.71c-.57-.17-1.12-.38-1.69-.52a8.59,8.59,0,0,0-4.61,0,7.29,7.29,0,0,0-4.91,4.64,12.21,12.21,0,0,0-.67,5.36A10.09,10.09,0,0,0,175,31.7,7.31,7.31,0,0,0,180.56,36a8.94,8.94,0,0,0,4.2-.33c.43-.13.85-.29,1.29-.41a2.1,2.1,0,0,1,2.27.6c.35.39.36.48,0,.86a6.74,6.74,0,0,1-2.49,1.56,11.31,11.31,0,0,1-5.19.69,13.65,13.65,0,0,1-5.13-1.39,11.18,11.18,0,0,1-6.17-8.36A11.83,11.83,0,0,1,169.15,27Z" transform="translate(-3.23 -1.97)"/>
  <path class="cls-6" d="M217.94,15.05c2.57-.19,4.28,1.11,4.42,3.29,0,.41.06.82.06,1.24,0,2.79,0,5.57.05,8.36a23.2,23.2,0,0,0,.27,3.72,5.66,5.66,0,0,0,.39,1.29A3.49,3.49,0,0,0,225.56,35a8.27,8.27,0,0,0,2.1.31,44.26,44.26,0,0,0,4.46-.09c.53,0,.55,0,.45.54a3.08,3.08,0,0,1-1.4,2,5.34,5.34,0,0,1-3.19.9,19.72,19.72,0,0,1-4.13-.38,8.25,8.25,0,0,1-1.73-.54,5.84,5.84,0,0,1-3.1-3.26,14,14,0,0,1-.83-3.84,40,40,0,0,1-.13-4.1V22.56C218.07,20.06,218.07,17.55,217.94,15.05Z" transform="translate(-3.23 -1.97)"/>
  <path class="cls-7" d="M61.09,18.72" transform="translate(-3.23 -1.97)"/>
</svg>
